# Exported from Wings 3D 2.2.5
mtllib girafe_tete.mtl
o Girafe_412
#79 vertices, 154 faces
v -8.05598099 -16.22974126 -39.86075432
v -17.48870726 -26.77933192 -33.28307696
v -10.84259495 -41.36684503 -21.17424343
v -5.20043964 -49.98873377 -13.75503479
v 6.17403601 -46.22797299 -14.87363025
v 10.25340849 -44.29081534 -15.72218772
v 11.65249774 -41.78363074 -17.41439173
v 16.32449360 -23.24491220 -30.79525264
v 2.98193201 -8.81310429 -43.81060937
v 0.12789236 -7.52435446 -45.22733127
v -1.85982681 -9.41915904 -44.09084252
v -7.88479204 0.23577008 43.25112048
v -0.22720285 15.54871364 31.39971364
v -10.17867542 6.78082941 29.25726004
v -11.28748268 -8.09960328 33.63763783
v -17.26549233 8.80537558 9.30154018
v -14.50678180 23.34972396 0.52090227
v -11.40104710 28.13877031 -9.63023866
v -15.11863239 18.91989519 -17.60835072
v -14.90021494 26.28008845 -17.93949056
v -6.84788527 15.91416086 -16.64045120
v -16.30532922 11.11349724 -7.59203666
v -2.72756352 -25.46817160 -0.35234019
v -8.53061763 -17.59936957 6.71393282
v -17.09120787 -8.55404453 -19.70811479
v -43.98748092 27.59064380 -25.53344747
v -31.77060788 15.05690718 -20.04842817
v -27.72900504 30.94449123 -13.40412501
v -19.86291265 17.64227972 11.88018927
v 12.74519198 47.85229370 -4.76901960
v 13.70587423 22.70130270 2.65543904
v 13.00028457 39.17555602 -9.65152962
v 8.88716110 26.03302982 -13.97418823
v 16.11882993 9.40665033 -9.24122136
v 17.60584126 -4.71274000 2.96561714
v 15.56302399 -5.79691357 -8.26386974
v -1.28653382 32.93696486 -8.08817348
v -11.10878556 50.73375167 -11.99068555
v -6.54962833 42.97541189 -4.08997557
v 10.88749142 5.92398725 28.67682674
v 11.19019268 -11.25053141 46.10960346
v 11.15365049 -8.15237167 33.69856048
v -17.63896085 -2.36566406 3.19230280
v -1.27883539 27.62479289 -14.72073274
v 17.68723816 14.91396088 1.0979829e-2
v 15.25480215 -5.14375676 20.76123273
v 8.16552883 -14.32232278 23.14260337
v -6.59485657 -14.93159351 28.15777825
v -13.65898972 -12.27630839 7.26076782
v 22.71630312 14.78581631 -14.67371918
v 37.21953838 23.00676425 -25.96040611
v 28.18742601 29.75647124 -15.18990609
v 13.54518862 -14.19688152 3.23596730
v 7.42425799 17.06218197 -16.73985329
v -15.88923448 -4.53098502 -5.53656384
v 10.34412578 -21.29832924 -4.79599574
v -5.88225856 -22.25640314 41.93762757
v -8.19564123 -14.58964674 54.29902965
v 18.51987713 22.76066793 -4.03699193
v -3.44607463 31.96306993 2.68098438
v 5.48545175 -18.47666700 34.60763923
v 19.25507027 19.53540190 15.66247677
v 6.69569335 -17.15543135 11.36438854
v 2.04410439 -16.27871637 21.55055541
v 6.96957617 42.96488353 -5.32970036
v 8.12747988 47.76138772 -11.73935987
v -13.32059462 42.94372553 -3.31893032
v -21.72188573 16.14672796 -12.41150950
v 10.13134920 23.03236024 15.18728903
v 0.13671861 30.58686906 19.60359492
v -17.10695292 15.95946507 18.73668023
v 5.91388549 -22.25891652 43.80652756
v 4.45083045 -16.92233245 58.60091645
v 7.24502906 -1.82461554 47.12081295
v -27.06384477 31.62206015 -23.25825304
v -29.64032867 20.51963525 -26.19273263
v 27.54853914 29.48883706 -25.54953439
v 6.89939136 29.53868688 3.99841514
v -1.25421437 -4.59174939 54.79673655
vn -0.35743524 -0.24018036 -0.90252615
vn -0.82808970 -0.21070539 -0.51949080
vn -0.33637002 -0.71861355 -0.60864585
vn -0.34935787 -0.86610958 0.35749583
vn 0.37641127 -0.92563745 3.8857019e-2
vn 0.73207822 -0.63688976 0.24172901
vn 0.75087935 -0.55314021 -0.36085469
vn 0.75529718 -0.24638360 -0.60730659
vn 0.43807243 -0.22876615 -0.86934377
vn -6.8194600e-2 0.40704613 -0.91085835
vn -0.42835261 -0.12759513 -0.89455772
vn -0.65091278 0.57671017 0.49367796
vn 4.4387687e-2 0.68152399 0.73044835
vn -0.87151788 0.22544868 0.43546467
vn -0.97288502 -0.17915439 0.14628205
vn -0.99386490 -7.4274555e-2 8.1950332e-2
vn -0.89048653 0.33028851 0.31295884
vn -0.39600598 0.77411334 -0.49389048
vn 0.14441536 -0.64692124 -0.74875704
vn 0.33886136 0.54229920 -0.76882023
vn -0.55838967 0.19654675 -0.80595928
vn -0.95158771 -0.20585229 -0.22826666
vn -0.21399119 -0.64055112 0.73749714
vn -0.54729747 -0.82163292 0.15932619
vn -0.99696481 -3.0648850e-2 -7.1566867e-2
vn -0.77123002 0.27103093 -0.57597438
vn -0.33665612 -0.94055915 4.4845792e-2
vn -0.35652864 0.72975238 0.58339420
vn -0.93825512 0.32759706 0.11116428
vn 0.43771231 0.70404846 0.55921704
vn 0.82154854 0.53368135 0.20060463
vn 0.57656151 0.21793975 -0.78745101
vn 6.4876386e-2 0.67280154 -0.73697296
vn 0.93706863 -0.22965014 -0.26298896
vn 0.96889742 -0.24745820 1.4907153e-3
vn 0.97451649 -0.20123146 9.9113660e-2
vn -4.8502031e-2 0.75630250 -0.65242171
vn 0.14693871 0.86764937 -0.47496693
vn 0.58094889 0.63828797 0.50506124
vn 0.86972999 0.26807435 0.41437409
vn 0.97346625 -5.3563221e-2 0.22247348
vn 0.94729319 -0.31948084 2.3824469e-2
vn -0.98696881 -0.16089962 1.9706987e-3
vn -6.3330080e-2 0.59816546 -0.79886631
vn 0.99091581 -5.5799973e-3 0.13436789
vn 0.95451930 -0.21930860 0.20198177
vn 0.68694251 -0.72153268 8.6605870e-2
vn -0.49127509 -0.86897999 -5.9351107e-2
vn -0.82751646 -0.56107061 2.0402896e-2
vn 0.76657788 -0.63108615 0.11869553
vn 0.27624298 -0.21381864 -0.93700129
vn 0.52989574 0.68730197 0.49681638
vn 0.82912478 -0.54939885 0.10350367
vn 0.40384081 0.15443746 -0.90169932
vn -0.94932196 -0.30900299 -5.7488952e-2
vn 0.73214682 -0.55051880 0.40111106
vn -0.43739967 -0.89816842 -4.4441113e-2
vn -0.81746040 -0.10331039 0.56664404
vn 0.68727749 0.49599514 0.53069622
vn -9.4183306e-2 0.80867146 0.58067201
vn 0.36401470 -0.89141249 -0.26995753
vn 0.79624557 0.50422498 0.33429054
vn 0.29599031 -0.90450708 0.30701251
vn 6.6649047e-2 -0.99768726 1.3342743e-2
vn -0.58256193 0.66070070 0.47338797
vn -0.36288101 0.79281338 -0.48965734
vn -0.65992723 0.46048872 0.59367179
vn -0.60171961 -0.72364329 0.33804423
vn 0.55236547 0.75705812 0.34893464
vn -0.14384475 0.89773283 0.41639459
vn -0.80069773 0.22524530 0.55511054
vn 0.62890643 -0.77673699 -3.4005126e-2
vn 0.38975657 -0.35127059 0.85129242
vn 0.52081807 0.61830397 0.58859897
vn 0.22238445 0.77732505 -0.58848187
vn 0.22138145 -0.25612800 -0.94095096
vn -1.0131625e-2 0.83999565 -0.54249853
vn 0.31768652 0.75274366 0.57658673
vn -0.13120870 0.59949813 0.78954814
g Girafe_412_blue
usemtl blue
s 1
f 2//2 3//3 25//25
f 4//4 5//5 23//23
f 5//5 6//6 23//23
f 9//9 10//10 54//54
f 11//11 1//1 21//21
f 12//12 74//74 13//13
f 12//12 79//79 74//74
f 13//13 14//14 12//12
f 13//13 71//71 14//14
f 13//13 74//74 40//40
f 14//14 15//15 12//12
f 15//15 58//58 12//12
f 17//17 22//22 16//16
f 17//17 68//68 22//22
f 18//18 38//38 37//37
f 18//18 67//67 38//38
f 19//19 68//68 27//27
f 19//19 76//76 20//20
f 20//20 28//28 18//18
f 20//20 75//75 28//28
f 20//20 76//76 75//75
f 21//21 1//1 25//25
f 21//21 10//10 11//11
f 22//22 43//43 16//16
f 22//22 55//55 43//43
f 22//22 68//68 19//19
f 23//23 3//3 4//4
f 23//23 6//6 56//56
f 24//24 64//64 48//48
f 25//25 1//1 2//2
f 25//25 3//3 23//23
f 26//26 76//76 27//27
f 27//27 76//76 19//19
f 30//30 78//78 31//31
f 31//31 32//32 30//30
f 31//31 33//33 32//32
f 31//31 62//62 45//45
f 31//31 69//69 62//62
f 31//31 78//78 69//69
f 32//32 66//66 30//30
f 34//34 8//8 54//54
f 36//36 6//6 7//7
f 36//36 7//7 8//8
f 36//36 8//8 34//34
f 37//37 66//66 32//32
f 38//38 39//39 37//37
f 39//39 60//60 37//37
f 40//40 74//74 41//41
f 41//41 42//42 40//40
f 41//41 72//72 42//42
f 42//42 72//72 61//61
f 43//43 55//55 49//49
f 44//44 10//10 21//21
f 45//45 46//46 35//35
f 45//45 59//59 31//31
f 45//45 62//62 46//46
f 46//46 47//47 35//35
f 47//47 53//53 35//35
f 47//47 63//63 53//53
f 47//47 64//64 63//63
f 48//48 49//49 24//24
f 49//49 55//55 24//24
f 50//50 59//59 45//45
f 51//51 52//52 50//50
f 51//51 77//77 52//52
f 52//52 59//59 50//50
f 54//54 8//8 9//9
f 54//54 10//10 44//44
f 56//56 6//6 36//36
f 57//57 58//58 15//15
f 57//57 73//73 58//58
f 60//60 65//65 37//37
f 61//61 72//72 57//57
f 63//63 64//64 24//24
f 65//65 66//66 37//37
f 72//72 73//73 57//57
g Girafe_412_lime
usemtl lime
s 1
f 1//1 3//3 2//2
f 3//3 5//5 4//4
f 3//3 8//8 7//7
f 5//5 3//3 6//6
f 6//6 3//3 7//7
f 8//8 1//1 9//9
f 8//8 3//3 1//1
f 9//9 11//11 10//10
f 11//11 9//9 1//1
g Girafe_412_orange
usemtl orange
s 1
f 14//14 16//16 15//15
f 14//14 71//71 16//16
f 15//15 49//49 48//48
f 16//16 29//29 17//17
f 16//16 43//43 15//15
f 16//16 71//71 29//29
f 17//17 67//67 18//18
f 17//17 70//70 60//60
f 18//18 28//28 17//17
f 18//18 44//44 20//20
f 20//20 21//21 19//19
f 20//20 44//44 21//21
f 21//21 22//22 19//19
f 21//21 25//25 22//22
f 23//23 63//63 24//24
f 24//24 25//25 23//23
f 24//24 55//55 25//25
f 25//25 55//55 22//22
f 27//27 28//28 26//26
f 27//27 68//68 28//28
f 28//28 68//68 17//17
f 28//28 75//75 26//26
f 29//29 70//70 17//17
f 29//29 71//71 70//70
f 30//30 66//66 65//65
f 31//31 59//59 33//33
f 32//32 44//44 37//37
f 33//33 44//44 32//32
f 33//33 54//54 44//44
f 33//33 59//59 52//52
f 33//33 77//77 51//51
f 34//34 45//45 35//35
f 34//34 50//50 45//45
f 34//34 54//54 50//50
f 35//35 36//36 34//34
f 35//35 53//53 36//36
f 37//37 44//44 18//18
f 38//38 67//67 39//39
f 39//39 67//67 60//60
f 40//40 62//62 13//13
f 41//41 73//73 72//72
f 41//41 74//74 73//73
f 42//42 46//46 40//40
f 42//42 47//47 46//46
f 42//42 61//61 47//47
f 43//43 49//49 15//15
f 46//46 62//62 40//40
f 48//48 57//57 15//15
f 48//48 61//61 57//57
f 48//48 64//64 61//61
f 50//50 54//54 51//51
f 51//51 54//54 33//33
f 52//52 77//77 33//33
f 53//53 56//56 36//36
f 53//53 63//63 56//56
f 56//56 63//63 23//23
f 58//58 79//79 12//12
f 60//60 67//67 17//17
f 60//60 78//78 65//65
f 61//61 64//64 47//47
f 62//62 69//69 13//13
f 65//65 78//78 30//30
f 69//69 70//70 13//13
f 69//69 78//78 70//70
f 70//70 71//71 13//13
f 70//70 78//78 60//60
f 73//73 79//79 58//58
f 74//74 79//79 73//73
f 75//75 76//76 26//26
