# Blender v2.80 (sub 75) OBJ File: 'MOAI.blend'
# www.blender.org
mtllib MOAI156.mtl
o moai
v 8.229140 -7.225173 13.980602
v 0.047416 -6.367470 25.331085
v 0.166437 -2.056122 29.457222
v 7.075071 -12.372786 18.684113
v 0.795082 -16.373440 20.966103
v 7.405720 -2.159083 30.817451
v -0.152116 -3.156963 34.189362
v 7.277850 8.911505 39.818344
v 8.603944 1.508065 27.857883
v 9.278229 8.529187 30.728714
v 10.278394 -0.910877 15.028164
v 2.658684 5.637538 39.937344
v 12.803295 3.499435 12.747192
v 11.921576 1.784435 4.795574
v 10.930988 12.303093 29.646133
v 13.541547 7.329574 5.291504
v 8.573636 6.729836 4.174904
v 10.468397 8.753445 19.033012
v 4.676115 10.708426 18.295994
v 4.760215 15.651266 36.935623
v 4.456621 7.968775 3.037304
v -1.607010 -11.084964 15.247932
v 4.603723 -13.026800 13.459354
v -6.993300 7.535101 39.794792
v -5.856880 16.072351 36.602654
v 8.653337 -12.645011 5.287983
v -0.148633 -14.440388 9.354404
v 5.306899 8.536795 -2.047956
v 11.858035 1.950794 -3.062706
v 13.150112 -6.885476 0.019543
v 8.208153 -18.241461 -2.063816
v -2.602134 -20.252758 -2.282156
v 6.387573 -12.060354 -6.405287
v -4.883129 -12.430880 -6.535217
v 2.670270 -11.862195 -9.796647
v 12.113402 -5.608715 -9.497167
v -4.155215 10.167741 16.173405
v -6.906077 7.302001 3.137133
v 21.407566 8.165902 -11.768126
v 22.745705 -2.786300 -15.103586
v 20.592585 2.783151 -8.118497
v 23.806816 3.590400 -22.754225
v 12.714528 11.743237 -13.664292
v 19.597439 10.240342 -22.813978
v 15.482141 -8.203958 -22.812992
v 10.897499 -14.815323 -22.809452
v 11.026019 -13.652702 -16.500208
v -1.163717 -16.147472 -18.082209
v 1.766921 -17.356625 -22.802021
v -5.303522 -12.860979 11.201984
v 22.203342 -4.170890 -22.819223
v 12.131488 12.226425 -22.814117
v -15.641779 -8.220538 -22.816835
v -14.367832 11.941323 -22.820251
v -6.281168 -2.978830 31.444145
v -9.203960 -6.028649 13.766083
v -6.031700 -13.387247 19.380322
v -8.539019 1.469123 28.064373
v -9.183036 8.684672 31.232704
v -10.099312 12.425273 28.565834
v -10.952104 6.073131 22.067913
v -11.927906 0.479214 6.185974
v -14.240075 2.618794 5.882124
v -10.409175 4.171562 3.775423
v -13.154733 7.520272 5.870003
v -10.395513 8.794304 19.011963
v -10.151151 -15.515222 -1.758827
v -9.516865 7.642150 -2.272436
v -11.756536 0.365982 -3.184267
v -13.088808 -5.621696 0.082283
v -8.591621 -9.118718 -9.097326
v -15.229358 -6.603297 -14.329754
v -20.120476 1.037036 -8.925517
v -20.209503 8.743064 -10.034857
v -24.013855 0.719906 -15.221481
v -22.888813 7.091335 -22.815617
v -22.492989 -3.742054 -22.819628
v -12.271522 12.151581 -14.663905
v -11.404560 -12.967567 -15.729254
v -9.655040 -15.852410 -22.799402
vn 0.6734 -0.5208 0.5247
vn 0.4953 -0.3160 0.8092
vn 0.7805 0.3172 0.5387
vn 0.3951 -0.5768 0.7150
vn 0.9674 -0.1531 0.2020
vn 0.9588 -0.1815 0.2186
vn 0.9749 -0.1578 0.1570
vn 0.9257 -0.3308 0.1832
vn 0.4330 -0.5860 0.6849
vn 0.8700 -0.4930 0.0099
vn 0.9157 -0.3391 0.2158
vn 0.9599 -0.2762 -0.0469
vn 0.2165 0.0240 -0.9760
vn 0.9614 0.1941 0.1949
vn 0.7479 0.6191 -0.2397
vn 0.2153 0.9437 -0.2512
vn 0.3344 0.9272 -0.1689
vn 0.3271 0.9293 -0.1716
vn 0.1786 -0.6838 -0.7075
vn 0.1779 -0.6852 -0.7063
vn 0.2075 -0.2154 0.9542
vn -0.0060 0.0447 0.9990
vn -0.0135 0.3890 0.9212
vn 0.9068 -0.3364 0.2540
vn 0.2297 -0.9709 0.0685
vn 0.2472 0.9576 0.1483
vn 0.8278 0.5610 0.0052
vn 0.9897 0.1430 -0.0050
vn 0.7761 -0.5174 0.3605
vn 0.8662 -0.3846 0.3189
vn 0.8632 -0.4255 0.2716
vn 0.4004 -0.7407 0.5396
vn 0.1584 -0.8963 0.4143
vn 0.7539 -0.2142 -0.6211
vn 0.7324 -0.1263 -0.6691
vn 0.1185 -0.5471 -0.8286
vn 0.0257 -0.4717 -0.8814
vn 0.0338 -0.9949 -0.0952
vn 0.7478 -0.4155 0.5178
vn 0.6883 0.7086 -0.1556
vn -0.0178 0.9841 -0.1764
vn -0.0574 0.9932 0.1013
vn 0.9627 0.0360 0.2681
vn 0.9802 0.0625 0.1880
vn 0.4518 -0.5693 0.6868
vn 0.4514 0.3207 0.8327
vn 0.4702 0.4454 0.7619
vn 0.3563 0.9272 0.1157
vn 0.2686 0.8709 0.4117
vn 0.4918 -0.6005 0.6304
vn 0.3768 -0.8867 0.2681
vn 0.4710 -0.6846 -0.5563
vn 0.8186 -0.5676 0.0879
vn 0.8783 -0.3760 0.2955
vn 0.3977 -0.6324 0.6647
vn 0.1323 -0.9041 0.4064
vn 0.1479 -0.9321 0.3306
vn 0.0463 0.9655 -0.2562
vn -0.1152 -0.8906 0.4400
vn -0.0010 0.0002 -1.0000
vn 0.9844 0.0458 0.1701
vn 0.8887 -0.3658 0.2765
vn 0.9084 -0.3210 0.2679
vn -0.0917 0.9882 -0.1229
vn 0.3392 0.8876 -0.3116
vn 0.4173 -0.7742 0.4759
vn 0.1317 -0.6483 -0.7499
vn 0.0284 -0.9740 -0.2247
vn 0.8445 0.5342 -0.0381
vn 0.2569 0.9658 0.0346
vn 0.5111 -0.8515 0.1169
vn 0.2644 -0.9494 0.1696
vn 0.0001 -0.0006 -1.0000
vn 0.0002 -0.0000 -1.0000
vn -0.0108 0.9985 0.0534
vn 0.0207 0.0041 -0.9998
vn 0.9789 -0.2020 -0.0326
vn 0.0000 -0.0001 -1.0000
vn -0.0002 -0.0021 -1.0000
vn 0.7678 0.4721 0.4331
vn 0.0709 -0.9726 -0.2215
vn -0.6865 -0.4928 0.5347
vn -0.3682 -0.3947 0.8418
vn -0.7710 0.1413 0.6209
vn -0.1400 -0.6431 -0.7529
vn -0.9582 -0.1824 0.2206
vn -0.9262 -0.2710 0.2622
vn -0.3419 -0.5986 0.7245
vn -0.1143 -0.5177 0.8479
vn -0.8970 0.0890 0.4331
vn -0.9733 -0.0868 0.2126
vn -0.4307 -0.8426 0.3232
vn -0.3027 -0.6572 -0.6903
vn -0.9362 0.2255 0.2697
vn -0.2915 -0.4360 -0.8514
vn -0.5132 0.1115 -0.8510
vn -0.3813 0.2449 -0.8914
vn -0.9652 0.2141 0.1504
vn -0.9178 0.3645 0.1574
vn -0.9857 0.1654 -0.0323
vn -0.2772 0.9490 -0.1501
vn -0.1872 -0.7591 -0.6234
vn -0.4915 -0.5377 0.6851
vn -0.0357 0.3542 0.9345
vn -0.7300 -0.5625 0.3882
vn -0.1269 -0.8604 0.4936
vn -0.5939 0.7325 0.3327
vn -0.9295 0.3683 -0.0214
vn -0.9782 0.2065 -0.0204
vn -0.9145 -0.3181 0.2502
vn -0.9590 -0.0873 0.2697
vn -0.4444 -0.7604 0.4735
vn -0.1940 -0.9443 0.2659
vn -0.6534 -0.0535 -0.7551
vn -0.3822 -0.5250 -0.7605
vn -0.9025 -0.0334 -0.4294
vn -0.9563 0.2911 0.0260
vn -0.6534 -0.7563 -0.0320
vn -0.6356 -0.5499 0.5419
vn -0.0614 0.9939 0.0921
vn 0.0078 0.9608 -0.2771
vn -0.0591 0.9775 -0.2024
vn -0.5608 0.0692 0.8251
vn -0.8502 0.0654 0.5224
vn -0.9838 -0.0359 -0.1758
vn -0.6082 -0.6796 0.4103
vn -0.4468 -0.6894 0.5703
vn -0.9274 0.3427 0.1501
vn -0.5765 0.1099 0.8097
vn 0.0050 0.9631 0.2690
vn -0.0617 0.9334 0.3534
vn -0.1753 0.9120 0.3709
vn -0.3597 0.9306 0.0685
vn -0.6292 -0.7187 0.2961
vn -0.6430 -0.5117 0.5697
vn -0.2195 -0.7387 -0.6372
vn -0.8343 -0.5327 0.1420
vn -0.1660 -0.8207 0.5467
vn -0.1471 -0.8491 0.5073
vn 0.0002 0.0004 -1.0000
vn -0.0002 -0.0006 -1.0000
vn -0.9750 -0.1564 0.1581
vn -0.9629 -0.2178 0.1590
vn -0.2493 0.9246 -0.2880
vn -0.3418 0.8820 -0.3246
vn -0.6712 -0.6853 0.2826
vn -0.0068 0.9954 -0.0951
vn -0.3966 -0.8053 0.4407
vn -0.4947 0.8690 -0.0086
vn -0.5380 -0.8229 0.1829
vn -0.2119 -0.9221 0.3238
vn -0.0006 -0.0027 -1.0000
vn 0.0001 -0.0004 -1.0000
vn -0.7856 -0.6161 0.0570
vn 0.0175 0.9994 -0.0303
vn -0.1286 -0.9769 0.1704
usemtl Default_OBJ
s off
f 1//1 3//1 2//1
f 2//2 5//2 4//2
f 2//3 4//3 1//3
f 6//4 8//4 7//4
f 9//5 8//5 6//5
f 8//6 9//6 10//6
f 11//7 10//7 9//7
f 11//8 9//8 1//8
f 8//9 12//9 7//9
f 11//10 14//10 13//10
f 10//11 15//11 8//11
f 14//12 16//12 13//12
f 17//13 16//13 14//13
f 16//14 18//14 13//14
f 15//15 13//15 18//15
f 19//16 20//16 15//16
f 18//17 17//17 19//17
f 17//18 21//18 19//18
f 22//19 4//19 5//19
f 22//20 1//20 4//20
f 22//21 23//21 1//21
f 8//22 24//22 12//22
f 25//23 8//23 20//23
f 26//24 11//24 1//24
f 23//25 27//25 26//25
f 28//26 21//26 17//26
f 29//27 17//27 14//27
f 14//28 30//28 29//28
f 26//29 1//29 23//29
f 26//30 30//30 11//30
f 30//31 26//31 31//31
f 26//32 27//32 31//32
f 27//33 32//33 31//33
f 31//34 33//34 30//34
f 30//35 33//35 29//35
f 31//36 32//36 33//36
f 34//37 33//37 32//37
f 34//38 35//38 33//38
f 33//39 36//39 29//39
f 17//40 29//40 28//40
f 37//41 19//41 21//41
f 38//42 21//42 28//42
f 39//43 41//43 40//43
f 42//44 39//44 40//44
f 36//45 41//45 29//45
f 29//46 41//46 28//46
f 41//47 39//47 28//47
f 39//48 44//48 43//48
f 39//49 43//49 28//49
f 36//50 40//50 41//50
f 40//51 36//51 45//51
f 33//52 35//52 36//52
f 45//53 47//53 46//53
f 36//54 47//54 45//54
f 36//55 35//55 47//55
f 47//56 35//56 48//56
f 47//57 48//57 49//57
f 25//58 20//58 19//58
f 50//59 27//59 23//59
f 44//60 51//60 45//60
f 14//61 11//61 30//61
f 13//62 10//62 11//62
f 10//63 13//63 15//63
f 16//64 17//64 18//64
f 18//65 19//65 15//65
f 9//66 3//66 1//66
f 9//67 6//67 3//67
f 6//68 7//68 3//68
f 44//69 39//69 42//69
f 43//70 44//70 52//70
f 51//71 40//71 45//71
f 49//72 46//72 47//72
f 53//73 45//73 46//73
f 45//74 54//74 52//74
f 43//75 52//75 54//75
f 44//76 42//76 51//76
f 40//77 51//77 42//77
f 44//78 45//78 52//78
f 46//79 49//79 53//79
f 15//80 20//80 8//80
f 7//81 55//81 3//81
f 56//82 2//82 3//82
f 5//83 2//83 57//83
f 2//84 56//84 57//84
f 55//85 58//85 3//85
f 24//86 59//86 58//86
f 58//87 55//87 24//87
f 24//88 55//88 7//88
f 24//89 7//89 12//89
f 60//90 59//90 25//90
f 61//91 59//91 60//91
f 59//92 61//92 62//92
f 22//93 57//93 56//93
f 24//94 25//94 59//94
f 63//95 64//95 62//95
f 64//96 63//96 65//96
f 38//97 64//97 65//97
f 61//98 65//98 63//98
f 66//99 65//99 61//99
f 66//100 61//100 60//100
f 66//101 37//101 38//101
f 5//102 57//102 22//102
f 56//103 50//103 22//103
f 8//104 25//104 24//104
f 50//105 56//105 67//105
f 23//106 22//106 50//106
f 68//107 64//107 38//107
f 69//108 62//108 64//108
f 70//109 62//109 69//109
f 56//110 70//110 67//110
f 70//111 56//111 62//111
f 32//112 27//112 67//112
f 27//113 50//113 67//113
f 70//114 34//114 67//114
f 34//115 32//115 67//115
f 71//116 70//116 69//116
f 68//117 69//117 64//117
f 71//118 34//118 70//118
f 72//119 71//119 69//119
f 28//120 68//120 38//120
f 19//121 37//121 25//121
f 37//122 21//122 38//122
f 68//123 73//123 69//123
f 74//124 75//124 73//124
f 76//125 77//125 75//125
f 73//126 75//126 72//126
f 72//127 69//127 73//127
f 76//128 75//128 74//128
f 68//129 74//129 73//129
f 43//130 78//130 28//130
f 28//131 78//131 68//131
f 74//132 68//132 78//132
f 74//133 78//133 54//133
f 77//134 72//134 75//134
f 71//135 72//135 79//135
f 35//136 34//136 71//136
f 79//137 72//137 53//137
f 71//138 79//138 35//138
f 79//139 48//139 35//139
f 45//140 77//140 76//140
f 76//141 54//141 45//141
f 58//142 59//142 62//142
f 58//143 62//143 56//143
f 37//144 60//144 25//144
f 37//145 66//145 60//145
f 62//146 61//146 63//146
f 38//147 65//147 66//147
f 3//148 58//148 56//148
f 76//149 74//149 54//149
f 53//150 72//150 77//150
f 79//151 80//151 48//151
f 53//152 49//152 80//152
f 45//153 53//153 77//153
f 53//154 80//154 79//154
f 43//155 54//155 78//155
f 49//156 48//156 80//156
